Coordinates
version=1
nRows=32
nColumns=12
inDegrees=yes

Units are S.I. units (second, meters, Newtons, ...)
Angles are in degrees

endheader
time	SC_y	SC_z	SC_x	AC_y	AC_z	AC_x	GH_y	GH_z	GH_yy	EL_x	PS_y
       0.0              -17.36          30.55          9.518          54.84          -17.6          7.167         -163.8          25.17         -136.3          107.3          29.93
   0.02365              -17.36          30.55          9.518          54.84          -17.6          7.165         -163.8          25.17         -136.3          107.3          29.94
   0.04729              -17.37          30.54          9.518          54.84          -17.6          7.163         -163.8          25.18         -136.3          107.3          29.96
   0.07094              -17.38          30.54          9.518          54.84          -17.6           7.16         -163.8          25.18         -136.3          107.3          29.97
   0.09458              -17.38          30.53          9.518          54.84          -17.6          7.158         -163.8          25.18         -136.4          107.3          29.99
    0.1182              -17.39          30.53          9.517          54.84         -17.59          7.155         -163.8          25.19         -136.4          107.3          30.01
    0.1419               -17.4          30.52          9.517          54.84         -17.59          7.152         -163.7          25.19         -136.4          107.3          30.03
    0.1655               -17.4          30.51          9.517          54.84         -17.59          7.149         -163.7           25.2         -136.4          107.3          30.06
    0.1892              -17.41           30.5          9.517          54.84         -17.59          7.146         -163.7           25.2         -136.4          107.3          30.08
    0.2128              -17.42           30.5          9.517          54.84         -17.58          7.143         -163.7          25.21         -136.4          107.3           30.1
    0.2365              -17.43          30.49          9.517          54.84         -17.58          7.139         -163.7          25.21         -136.4          107.3          30.13
    0.2601              -17.44          30.48          9.517          54.84         -17.58          7.135         -163.7          25.22         -136.4          107.3          30.16
    0.2837              -17.45          30.47          9.517          54.84         -17.57          7.131         -163.6          25.23         -136.4          107.3          30.19
    0.3074              -17.46          30.46          9.517          54.83         -17.57          7.126         -163.6          25.24         -136.4          107.4          30.23
     0.331              -17.48          30.44          9.517          54.83         -17.57          7.121         -163.6          25.24         -136.5          107.4          30.27
    0.3547              -17.49          30.43          9.517          54.83         -17.56          7.116         -163.6          25.25         -136.5          107.4          30.31
    0.3783               -17.5          30.42          9.516          54.83         -17.56           7.11         -163.5          25.26         -136.5          107.4          30.35
     0.402              -17.52           30.4          9.516          54.83         -17.55          7.103         -163.5          25.27         -136.5          107.4           30.4
    0.4256              -17.54          30.39          9.516          54.83         -17.55          7.096         -163.5          25.29         -136.5          107.4          30.45
    0.4493              -17.56          30.37          9.516          54.83         -17.54          7.089         -163.4           25.3         -136.5          107.4          30.51
    0.4729              -17.58          30.35          9.516          54.83         -17.53           7.08         -163.4          25.31         -136.6          107.4          30.57
    0.4966               -17.6          30.32          9.516          54.82         -17.53          7.071         -163.3          25.33         -136.6          107.5          30.64
    0.5202              -17.63           30.3          9.515          54.82         -17.52           7.06         -163.3          25.34         -136.6          107.5          30.72
    0.5439              -17.66          30.27          9.515          54.82         -17.51          7.049         -163.2          25.36         -136.6          107.5           30.8
    0.5675              -17.69          30.24          9.515          54.82          -17.5          7.036         -163.2          25.38         -136.7          107.5           30.9
    0.5911              -17.73          30.21          9.514          54.81         -17.49          7.022         -163.1          25.41         -136.7          107.6           31.0
    0.6148              -17.77          30.17          9.514          54.81         -17.48          7.006         -163.0          25.43         -136.8          107.6          31.12
    0.6384              -17.81          30.13          9.514          54.81         -17.46          6.989         -162.9          25.46         -136.8          107.6          31.25
    0.6621              -17.87          30.08          9.513           54.8         -17.45          6.968         -162.8           25.5         -136.9          107.7           31.4
    0.6857              -17.92          30.02          9.513           54.8         -17.43          6.946         -162.7          25.53         -136.9          107.7          31.57
    0.7094              -17.99          29.96          9.512          54.79         -17.41          6.919         -162.6          25.58         -137.0          107.8          31.77
     0.733              -18.07          29.89          9.511          54.79         -17.38           6.89         -162.4          25.63         -137.1          107.8          31.99
